<svg version="1.2" xmlns="http://www.w3.org/2000/svg" viewBox="0 0 500 200" width="500" height="200">
	<title>template</title>
	<style>
		tspan { white-space:pre } 
		.s0 { fill: #dedede } 
		.t1 { font-size: 20px;fill: #ffffff;font-weight: 700;font-family: "Ubuntu-Bold", "Ubuntu" } 
		.t2 { font-size: 45px;fill: #ffffff;font-weight: 700;font-family: "Ubuntu-Bold", "Ubuntu" } 
	</style>
	<g id="Folder 1">
		<g id="code">
			<path id="Shape 1" class="s0" d="m409.2 133.8l-2.8 3.1q-0.6 0.6-1.3 0.6-0.7 0-1.3-0.6l-26.2-28.5q-0.6-0.6-0.6-1.4 0-0.8 0.6-1.4l26.2-28.5q0.6-0.6 1.3-0.6 0.7 0 1.3 0.6l2.8 3.1q0.6 0.6 0.6 1.4 0 0.8-0.6 1.4l-22.1 24 22.1 24q0.6 0.6 0.6 1.4 0 0.8-0.6 1.4zm33.1-66.7q-0.3-0.7-1.1-0.9l-3.5-1q-0.6-0.3-1.3 0.1-0.6 0.4-0.9 1.2l-21 78.9q-0.2 0.7 0.2 1.5 0.3 0.7 1.1 0.9l3.5 1q0.6 0.3 1.3-0.1 0.6-0.4 0.9-1.2l21-78.9q0.2-0.7-0.2-1.5zm37.7 39.9q0-0.8-0.6-1.4l-26.2-28.5q-0.6-0.6-1.3-0.6-0.7 0-1.3 0.6l-2.8 3.1q-0.6 0.6-0.6 1.4 0 0.8 0.6 1.4l22.1 24-22.1 24q-0.6 0.6-0.6 1.4 0 0.8 0.6 1.4l2.8 3.1q0.6 0.6 1.3 0.6 0.7 0 1.3-0.6l26.2-28.5q0.6-0.6 0.6-1.4z"/>
		</g>
		<text id="Code Collection" style="transform: matrix(1.972,0,0,2.592,185.045,134.2)" >
			<tspan x="-75.6" y="0" class="t1">C</tspan><tspan  y="0" class="t1">o</tspan><tspan  y="0" class="t1">d</tspan><tspan  y="0" class="t1">e</tspan><tspan  y="0" class="t1"> </tspan><tspan  y="0" class="t1">C</tspan><tspan  y="0" class="t1">o</tspan><tspan  y="0" class="t1">l</tspan><tspan  y="0" class="t1">l</tspan><tspan  y="0" class="t1">e</tspan><tspan  y="0" class="t1">c</tspan><tspan  y="0" class="t1">t</tspan><tspan  y="0" class="t1">i</tspan><tspan  y="0" class="t1">o</tspan><tspan  y="0" class="t1">n
</tspan>
		</text>
		<text id="AE" style="transform: matrix(.95,0,0,1.203,72.499,84.253)" >
			<tspan x="-30" y="0" class="t2">A</tspan><tspan  y="0" class="t2">E
</tspan>
		</text>
	</g>
</svg>